<?xml version="1.0" encoding="UTF-8"?>
<svg width="30px" height="30px" viewBox="0 0 30 30" version="1.1" xmlns="http://www.w3.org/2000/svg" xmlns:xlink="http://www.w3.org/1999/xlink">
    <!-- Generator: sketchtool 51.3 (57544) - http://www.bohemiancoding.com/sketch -->
    <title>CC382E2C-02AC-44CE-BA89-ABF66CD7ECE2</title>
    <desc>Created with sketchtool.</desc>
    <defs></defs>
    <g id="Page-1" stroke="none" stroke-width="1" fill="none" fill-rule="evenodd">
        <g id="Komentari" transform="translate(-1148.000000, -2804.000000)">
            <g id="Group-4" transform="translate(1148.000000, 2804.000000)">
                <path d="M2,0 L28,0 C29.1045695,-2.02906125e-16 30,0.8954305 30,2 L30,30 L0,30 L0,2 C-1.3527075e-16,0.8954305 0.8954305,2.02906125e-16 2,0 Z" id="Rectangle-38" fill="#F2F2F2"></path>
                <g id="40" transform="translate(15.500000, 15.000000) rotate(270.000000) translate(-15.500000, -15.000000) translate(11.000000, 7.000000)" fill="#272727" fill-rule="nonzero" stroke="#272727">
                    <path d="M1.06748463,0.182887977 C0.823241317,-0.0609626589 0.427425792,-0.0609626589 0.183182482,0.182887977 C-0.0610608275,0.427131287 -0.0610608275,0.823339486 0.183182482,1.06719012 L6.24999782,7.13361278 C6.54583537,7.40815484 6.69375415,7.61653391 6.69375415,7.75875 C6.69375415,7.90096609 6.54583537,8.10934516 6.24999782,8.38388722 L0.183182482,14.4503099 C-0.0610608275,14.6941605 -0.0610608275,15.0903687 0.183182482,15.334612 C0.427425792,15.5784627 0.823241317,15.5784627 1.06748463,15.334612 L7.93299915,8.46870483 C8.1218754,8.27904322 8.22632672,8.02655376 8.22632672,7.75875 C8.22632672,7.48976822 8.1218754,7.2380641 7.93299915,7.0484025 L1.06748463,0.182887977 Z" id="Shape"></path>
                </g>
            </g>
        </g>
    </g>
</svg>