<?xml version="1.0" encoding="UTF-8"?>
<svg width="30px" height="35px" viewBox="0 0 30 35" version="1.1" xmlns="http://www.w3.org/2000/svg" xmlns:xlink="http://www.w3.org/1999/xlink">
    <!-- Generator: sketchtool 51.3 (57544) - http://www.bohemiancoding.com/sketch -->
    <title>7938902D-E6B8-47A9-9D83-617EAA8A6B28</title>
    <desc>Created with sketchtool.</desc>
    <defs></defs>
    <g id="Page-1" stroke="none" stroke-width="1" fill="none" fill-rule="evenodd">
        <g id="Naslovna" transform="translate(-833.000000, -763.000000)">
            <g id="Top-vesti" transform="translate(260.000000, 577.000000)">
                <g id="desno" transform="translate(588.000000, 203.500000) scale(-1, -1) translate(-588.000000, -203.500000) translate(573.000000, 186.000000)">
                    <rect id="Rectangle-13" fill-opacity="0.6" fill="#F0F0F0" x="0" y="0" width="30" height="34.6153846"></rect>
                    <path d="M10.6297009,7.80483695 C10.3411659,7.51676583 9.87357223,7.51676583 9.58503722,7.80483695 C9.29650221,8.09337196 9.29650221,8.56142956 9.58503722,8.84950068 L16.7520242,16.0160238 L16.7520242,16.0160238 C17.1089549,16.4436663 17.1089549,17.0653836 16.7520242,17.4930261 L9.58503722,24.6595492 C9.29650221,24.9476203 9.29650221,25.4156779 9.58503722,25.7042129 C9.87357223,25.9922841 10.3411659,25.9922841 10.6297009,25.7042129 L18.7402252,17.5932248 C18.9633528,17.3691695 19.0867456,17.0708929 19.0867456,16.7545249 C19.0867456,16.4367653 18.9633528,16.1394165 18.7402252,15.9153612 L10.6297009,7.80483695 Z" id="Shape" fill="#FFFFFF" fill-rule="nonzero" transform="translate(14.227691, 16.754525) scale(-1, 1) translate(-14.227691, -16.754525) "></path>
                </g>
            </g>
        </g>
    </g>
</svg>