<?xml version="1.0" encoding="UTF-8"?>
<svg width="30px" height="35px" viewBox="0 0 30 35" version="1.1" xmlns="http://www.w3.org/2000/svg" xmlns:xlink="http://www.w3.org/1999/xlink">
    <!-- Generator: sketchtool 51.3 (57544) - http://www.bohemiancoding.com/sketch -->
    <title>68433CD3-3878-48E6-937F-1E0F770CC3AF</title>
    <desc>Created with sketchtool.</desc>
    <defs></defs>
    <g id="Page-1" stroke="none" stroke-width="1" fill="none" fill-rule="evenodd">
        <g id="Naslovna" transform="translate(-260.000000, -763.000000)">
            <g id="Top-vesti" transform="translate(260.000000, 577.000000)">
                <g id="levo" transform="translate(15.000000, 203.500000) scale(-1, -1) translate(-15.000000, -203.500000) translate(0.000000, 186.000000)">
                    <rect fill-opacity="0.6" fill="#F5F5F5" x="0" y="0" width="30" height="34.6153846"></rect>
                    <path d="M11.7835471,7.80483695 C11.4950121,7.51676583 11.0274184,7.51676583 10.7388834,7.80483695 C10.4503484,8.09337196 10.4503484,8.56142956 10.7388834,8.84950068 L17.9058703,16.0160238 L17.9058703,16.0160238 C18.2628011,16.4436663 18.2628011,17.0653836 17.9058703,17.4930261 L10.7388834,24.6595492 C10.4503484,24.9476203 10.4503484,25.4156779 10.7388834,25.7042129 C11.0274184,25.9922841 11.4950121,25.9922841 11.7835471,25.7042129 L19.8940714,17.5932248 C20.1171989,17.3691695 20.2405917,17.0708929 20.2405917,16.7545249 C20.2405917,16.4367653 20.1171989,16.1394165 19.8940714,15.9153612 L11.7835471,7.80483695 Z" fill="#FFFFFF" fill-rule="nonzero"></path>
                </g>
            </g>
        </g>
    </g>
</svg>