<?xml version="1.0" encoding="UTF-8"?>
<svg width="15px" height="17px" viewBox="0 0 15 17" version="1.1" xmlns="http://www.w3.org/2000/svg" xmlns:xlink="http://www.w3.org/1999/xlink">
    <!-- Generator: sketchtool 51.3 (57544) - http://www.bohemiancoding.com/sketch -->
    <title>C6B5B2B9-C433-4390-8ACD-6D96020545C1</title>
    <desc>Created with sketchtool.</desc>
    <defs></defs>
    <g id="Page-1" stroke="none" stroke-width="1" fill="none" fill-rule="evenodd">
        <g id="Naslovna" transform="translate(-193.000000, -650.000000)" fill="#8AB957">
            <g id="Uhvacen-bot" transform="translate(20.000000, 577.000000)">
                <g id="Text-1" transform="translate(9.000000, 53.000000)">
                    <path d="M171.501645,20.8163265 C167.356908,20.8163265 164,24.3085392 164,28.6258727 C164,32.932935 167.356908,36.4302833 171.501645,36.4302833 C175.631579,36.4302833 179,32.932935 179,28.6258727 C179,24.3085392 175.631579,20.8163265 171.501645,20.8163265 Z M171.501645,31.9235776 C170.912829,32.543555 169.960526,32.543555 169.376645,31.9235776 L167.254934,29.6805132 C166.674342,29.0587943 166.674342,28.0522018 167.254934,27.4339659 C167.838816,26.8122469 168.791118,26.8122469 169.376645,27.4339659 L170.4375,28.5607226 L173.613487,25.185677 C174.197368,24.563958 175.143092,24.563958 175.731908,25.185677 C176.328947,25.8091374 176.328947,26.8122469 175.731908,27.4339659 L171.501645,31.9235776 Z" id="Fill-1000"></path>
                </g>
            </g>
        </g>
    </g>
</svg>